<svg xmlns="http://www.w3.org/2000/svg" xmlns:xlink="http://www.w3.org/1999/xlink" version="1.1" x="0px" y="0px" viewBox="0 0 512 640" style="enable-background:new 0 0 512 512;" xml:space="preserve"><title>Mobile tech</title><g><path d="M27.9,451.6c0,21.2,17.1,38.4,38.3,38.4H244c21.2,0,38.9-17.2,38.9-38.4V410h-255V451.6z M130.5,437h49.3c3.3,0,6,2.7,6,6   s-2.7,6-6,6h-49.3c-3.3,0-6-2.7-6-6S127.1,437,130.5,437z"/><path d="M244,22H66.2C45,22,27.9,39.2,27.9,60.4V73h255V60.4C282.9,39.2,265.2,22,244,22z"/><path d="M263,116c-11,0-19.9,8.9-20,19.9c0,3.2,0.8,6.4,2.3,9.3c1.1,0.7,2.2,1.4,3.2,2.2c2.6,2,3.2,5.8,1.2,8.4   c-2,2.6-5.7,3.1-8.3,1.2c-15.7-11.6-37.9-8.2-49.4,7.5c-8.3,11.3-9.2,26.5-2.2,38.6c1.7,2.9,0.7,6.5-2.2,8.2   c-2.9,1.7-6.5,0.7-8.2-2.2c-0.1-0.2-0.3-0.5-0.4-0.8c-0.6,0.3-1.3,0.7-1.9,1.1c-10.8,7.2-13.8,21.8-6.6,32.7c1.4,2,3,3.8,4.9,5.4   c6.6-3.3,13.8-5,21.2-5c3.3,0,6,2.7,6,6c0,3.3-2.7,6-6,6c-19.5,0-35.3,15.8-35.3,35.3c0,19.5,15.8,35.3,35.3,35.3c3.3,0,6,2.7,6,6   c-0.1,3.3-2.8,6-6.2,6c-1.9,0-3.7-0.1-5.6-0.3v7.7c0.1,13.9,11.4,25.1,25.3,25c13.8-0.1,24.9-11.2,25-25c0-3.3,2.8-6,6.1-6   c3.3,0,5.9,2.7,6,6c0.1,9.2-3.3,18.1-9.5,24.9c4.2,2.8,9.1,4.3,14.1,4.3c12.8,0,23.1-9.6,25.1-22V133.3   C280.9,123.6,273.1,116,263,116z M226.2,166.3L226.2,166.3c8.8-2.3,18.2,1.3,23.2,8.9c1.7,0.3,3.4,0.2,5-0.4   c1.4-0.5,2.6-1.3,3.6-2.3c2.3-2.4,6.1-2.5,8.5-0.2c2.4,2.3,2.5,6.1,0.2,8.5c0,0,0,0-0.1,0.1c-2.3,2.3-5,4.1-8.1,5.2   c-1.7,0.6-3.5,1-5.4,1.2c0,3.6-0.9,7.2-2.7,10.4c-1.6,2.9-5.3,4-8.2,2.4s-4-5.3-2.4-8.2c2.5-4.6,0.9-10.4-3.8-13   c-0.8-0.5-1.8-0.8-2.7-1c-1.4-0.3-2.9-0.3-4.3,0.1c-3.2,0.8-6.5-1.1-7.3-4.3C221,170.4,223,167.2,226.2,166.3z M201.9,235   c-1.6,0-3.1-0.6-4.2-1.7c-1.3-1.3-2.5-2.7-3.4-4.3c-3,1.3-6.6-0.1-7.9-3.1c-1.3-2.9-0.1-6.3,2.8-7.7c4.1-2,6.2-6.6,5.1-11   c-0.8-3.2,1.1-6.5,4.3-7.3c3.2-0.8,6.5,1.1,7.3,4.3c1.4,5.5,0.6,11.3-2.3,16.2c0.4,1.6,1.3,3.1,2.5,4.3c2.4,2.3,2.4,6.1,0.1,8.5   C205.1,234.4,203.5,235,201.9,235z M248.5,317.4L248.5,317.4c-3.7,2.6-8,4.3-12.5,5.1c-3.6,0.6-7.3,0.5-10.9-0.2   c-0.5,6.1-2.9,12-6.8,16.8c-2.1,2.6-5.9,2.9-8.4,0.8s-2.9-5.9-0.8-8.4c3.7-4.5,5.1-10.6,3.6-16.3c-0.1-0.2-0.1-0.4-0.2-0.5   c-0.9-2.9-2.4-5.6-4.6-7.7c-2.3-2.3-2.3-6.1,0-8.5s6.1-2.3,8.5,0c3,3,5.4,6.7,6.9,10.7c5.9,2.9,12.9,2.3,18.3-1.5   c2.7-1.9,6.5-1.2,8.4,1.5C251.9,311.8,251.2,315.5,248.5,317.4z M272.6,260.4c-1.9,2.7-5.7,3.3-8.4,1.4c0,0,0,0,0,0   c-6.3-4.5-15-3.1-19.5,3.2c-0.8,1.1-1.5,2.4-1.9,3.8l0,0c-0.7,2-0.9,4.1-0.6,6.2c0.4,3.3-1.9,6.3-5.2,6.7c0,0,0,0,0,0   c-0.3,0-0.5,0.1-0.8,0.1c-3,0-5.5-2.2-5.9-5.2c-1.5-11.2,4.4-22,14.6-26.8c1.7-4.6,0.9-9.8-2.2-13.6c-2.1-2.6-1.7-6.4,0.9-8.4   c2.6-2.1,6.4-1.7,8.4,0.9c4.2,5.2,6.2,11.9,5.6,18.6c4.9,0.3,9.6,2,13.6,4.9C274,253.9,274.6,257.7,272.6,260.4z"/><path d="M234,377.2c-5.5,2.9-11.6,4.5-17.9,4.5c-20.5,0-37.1-16.5-37.2-37v-10.8c-17-6.9-29.8-24.1-29.8-44   c0-13.5,5.9-26.4,16-35.4c-14-13.8-14.1-36.4-0.3-50.4c1.7-1.7,3.6-3.3,5.6-4.6c1.3-0.9,2.7-1.6,4.1-2.3   c-6.5-25.4,8.8-51.1,34.2-57.6c7.3-1.9,15-2,22.4-0.2c-2-17.4,10.5-33.1,27.9-35.1c1.3-0.1,2.6-0.2,3.9-0.2   c7.4,0,13.9,2.6,19.9,6.8V85h-255v313h255v-21.8c-6.9,6.1-15.8,9.5-25.1,9.6C249.2,385.8,240.7,382.7,234,377.2z"/><path d="M476.7,220.3c-10-10.2-26.4-10.3-36.6-0.3c-0.1,0.1-0.1,0.1-0.2,0.2v-0.2c-3.5,3.2-5.9,7.5-7,12.1h-144v12h144   c1,4.8,3.4,9.2,6.9,12.6c10,10.2,26.4,10.3,36.6,0.3C486.5,246.9,486.7,230.5,476.7,220.3z M468,248.3c-5.4,5.4-14.3,5.4-19.7,0   c0,0,0,0,0,0c-5.4-5.4-5.4-14.3,0-19.7c5.4-5.4,14.3-5.4,19.7,0C473.4,234.1,473.4,242.9,468,248.3z"/><path d="M350,192.5c0-7.9,6.4-14.4,14.3-14.5h16c1,4.8,3.4,9.1,6.9,12.5c10.1,10,26.4,9.9,36.4-0.2s9.9-26.4-0.2-36.4   c-10-9.9-26.2-9.9-36.2,0c-3.3,3.4-5.6,7.6-6.9,12.2h-16c-14.6,0.1-26.3,11.9-26.3,26.5c0,7.9-6.4,14.4-14.3,14.5h-34.8v12h34.8   C338.3,218.9,350,207.1,350,192.5z M395.7,162.5C395.7,162.5,395.7,162.5,395.7,162.5c5.4-5.4,14.3-5.4,19.7,0s5.4,14.3,0,19.7   c-5.4,5.4-14.3,5.4-19.7,0C390.2,176.7,390.2,167.9,395.7,162.5z"/><path d="M387.4,286.3c-0.1,0.1-0.2,0.2-0.2,0.2c-3.5,3.4-5.9,7.7-6.9,12.5h-16c-7.9-0.1-14.3-6.6-14.3-14.5   c0-14.6-11.7-26.4-26.3-26.5h-34.8v12h34.8c7.9,0.1,14.3,6.6,14.3,14.5c0,14.6,11.7,26.4,26.3,26.5h16c1.3,4.6,3.6,8.7,6.9,12.2   c10.1,10.2,26.6,10.4,36.9,0.2c10.2-10.1,10.4-26.6,0.2-36.9C414.2,276.3,397.6,276.2,387.4,286.3z M415.3,314.5   c-5.4,5.4-14.3,5.4-19.7,0c-2.6-2.6-4.1-6.2-4.1-9.8c0-3.7,1.5-7.2,4.1-9.8h0c5.4-5.4,14.3-5.4,19.7,0   C420.8,300.3,420.8,309.1,415.3,314.5z"/><path d="M366.4,333.3c-9.1,2.8-16,10.4-17.8,19.8c-5.3-2-9.5-6.2-11.5-11.5l-13.2-35.8c-4.6-12.4-16.4-20.6-29.6-20.7h-5.3v12h5.3   c8.2,0.1,15.5,5.2,18.3,12.9l13.2,35.7c3.8,10.3,12.7,17.8,23.5,20c4.2,13.7,18.7,21.3,32.4,17.1s21.3-18.7,17.1-32.4   C394.5,336.7,380,329.1,366.4,333.3z M383.9,367.9c-5.4,5.4-14.3,5.4-19.7,0c-2.6-2.6-4.1-6.2-4.1-9.8c0-3.7,1.5-7.2,4.1-9.8   c5.4-5.4,14.3-5.4,19.7,0C389.3,353.6,389.3,362.4,383.9,367.9z"/><path d="M323.8,171.2l13.2-35.7c2-5.3,6.2-9.5,11.5-11.5c2.8,14,16.4,23.2,30.4,20.4c14-2.8,23.2-16.4,20.4-30.4   c-2.8-14-16.4-23.2-30.4-20.4c-9.3,1.8-16.9,8.7-19.7,17.8c-10.7,2.2-19.6,9.7-23.5,20l-13.2,35.8c-2.8,7.7-10.1,12.8-18.3,12.9   h-5.3v12h5.3C307.5,191.9,319.2,183.6,323.8,171.2z M364.2,109.1c5.4-5.4,14.3-5.4,19.7,0c5.4,5.4,5.4,14.3,0,19.7   c-5.4,5.4-14.3,5.4-19.7,0c-2.6-2.6-4.1-6.2-4.1-9.8C360.1,115.3,361.6,111.7,364.2,109.1z"/></g><text x="0" y="527" fill="#000000" font-size="5px" font-weight="bold" font-family="'Helvetica Neue', Helvetica, Arial-Unicode, Arial, Sans-serif">Created by Icongeek26</text><text x="0" y="532" fill="#000000" font-size="5px" font-weight="bold" font-family="'Helvetica Neue', Helvetica, Arial-Unicode, Arial, Sans-serif">from the Noun Project</text></svg>