<svg xmlns="http://www.w3.org/2000/svg" xmlns:xlink="http://www.w3.org/1999/xlink" xml:space="preserve" version="1.1" style="shape-rendering:geometricPrecision;text-rendering:geometricPrecision;image-rendering:optimizeQuality;" viewBox="0 0 60000 75000" x="0px" y="0px" fill-rule="evenodd" clip-rule="evenodd"><defs><style type="text/css">
   
    .fil0 {fill:black;fill-rule:nonzero}
   
  </style></defs><g><path class="fil0" d="M48815 10696l4274 1819c232,-173 519,-275 831,-275 384,0 732,156 984,408 252,252 408,600 408,984 0,384 -156,732 -408,984 -93,93 -200,173 -316,237l-790 25350c119,64 227,146 322,240 252,252 408,600 408,984 0,384 -156,732 -408,984 -252,252 -600,408 -984,408 -208,0 -406,-46 -583,-128l-19648 13900c47,140 73,290 73,446 0,384 -156,732 -408,984 -252,252 -600,408 -984,408 -384,0 -732,-156 -984,-408 -252,-252 -408,-600 -408,-984 0,-115 14,-227 40,-334l-7240 -4262c-10,12 -19,24 -29,35 -323,386 -775,624 -1279,624 -504,0 -956,-239 -1279,-624 -307,-366 -497,-867 -497,-1416 0,-549 190,-1050 497,-1416 323,-386 775,-624 1279,-624 504,0 956,239 1279,624 307,366 497,867 497,1416 0,236 -35,462 -99,673l7275 4283c248,-231 581,-372 947,-372 324,0 623,111 859,297l11965 -8464 118 -5819 -3835 2585c-114,77 -270,47 -347,-67 -77,-114 -47,-270 67,-347l4126 -2782 41 -2012 -6856 4622c-114,77 -270,47 -347,-67 -77,-114 -47,-270 67,-347l7148 -4819 379 -18723 -12045 7542c33,118 50,242 50,371 0,384 -156,732 -408,984 -252,252 -600,408 -984,408 -384,0 -732,-156 -984,-408 -252,-252 -408,-600 -408,-984 0,-76 6,-151 18,-224l-16835 -8173 73 13084c241,108 461,307 644,575 275,402 472,967 526,1600 24,281 17,553 -15,807l8317 4283c35,-146 81,-281 137,-402 182,-395 472,-654 828,-684 355,-30 684,177 930,536 218,318 374,764 416,1264 42,499 -37,965 -198,1315 -182,395 -472,654 -828,684 -355,30 -684,-177 -930,-536 -218,-318 -374,-764 -416,-1264 -11,-132 -14,-262 -9,-388l-8351 -4301c-37,125 -80,242 -131,350 -225,487 -579,806 -1011,842 -431,36 -834,-219 -1137,-662 -275,-402 -472,-967 -526,-1600 -11,-130 -15,-257 -14,-382l-4556 -2347 359 9301c245,63 464,191 637,364 252,252 408,600 408,984 0,115 -14,227 -40,334l5285 3111c190,111 254,355 142,545 -111,190 -355,254 -545,142l-5286 -3112c-248,231 -581,372 -947,372 -384,0 -732,-156 -984,-408 -252,-252 -408,-600 -408,-984 0,-384 156,-732 408,-984 149,-149 331,-264 535,-333l-955 -24744c-245,-63 -464,-191 -637,-364 -252,-252 -408,-600 -408,-984 0,-384 156,-732 408,-984 252,-252 600,-408 984,-408 384,0 732,156 984,408l5 5 21015 -11176c-3,-39 -5,-78 -5,-118 0,-384 156,-732 408,-984 252,-252 600,-408 984,-408 384,0 732,156 984,408 252,252 408,600 408,984 0,32 -1,63 -3,94l5653 2406c50,-81 106,-158 166,-229 323,-386 775,-624 1279,-624 504,0 956,239 1279,624 307,366 497,867 497,1416 0,549 -190,1050 -497,1416 -323,386 -775,624 -1279,624 -504,0 -956,-239 -1279,-624 -307,-366 -497,-867 -497,-1416 0,-152 15,-300 42,-442l-5645 -2402c-38,50 -80,98 -124,142 -252,252 -600,408 -984,408 -384,0 -732,-156 -984,-408 -37,-37 -73,-77 -106,-118l-20936 11134c18,88 27,180 27,273 0,76 -6,151 -18,224l5805 2818 11991 -7472c-33,-105 -50,-216 -50,-332 0,-295 116,-565 303,-763l0 -2c192,-202 458,-328 752,-328 295,0 561,125 752,328l0 2c187,198 303,467 303,763 0,67 -6,132 -17,196 5921,2682 11841,5364 17761,8046l7525 -4712c-33,-118 -50,-242 -50,-371 0,-160 27,-313 76,-456l-4102 -1746 313 -734zm-1951 26200c114,-77 270,-47 347,67 77,114 47,270 -67,347l-2058 1387 -41 2012 4788 -3228c114,-77 270,-47 347,67 77,114 47,270 -67,347l-5079 3424 -118 5802 7029 -4973c-127,-210 -201,-457 -201,-720 0,-384 156,-732 408,-984 223,-223 522,-371 854,-402l780 -25025c-300,-29 -571,-152 -785,-340l-7524 4711 -379 18698 1766 -1191zm-19769 -25768c-28,38 -57,74 -89,107l0 2c-192,202 -458,328 -752,328 -295,0 -561,-125 -752,-328l0 -1 -11712 7299 16771 8142c13,-15 27,-29 41,-43 252,-252 600,-408 984,-408 352,0 674,131 919,347l12040 -7539 -17450 -7905zm-2693 28174c-144,-210 -314,-333 -477,-319 -162,14 -309,164 -416,395 -127,276 -188,652 -154,1065 35,412 158,773 330,1023 144,210 314,333 477,319 162,-14 309,-164 416,-395 127,-276 188,-652 154,-1065 -35,-412 -158,-773 -330,-1023zm-11452 -7083l-74 -13240 -5772 -2802c-13,15 -27,29 -41,43 -149,149 -331,264 -535,333l574 14871 4623 2381c44,-276 119,-528 219,-745 224,-485 576,-803 1005,-842zm730 942c-201,-293 -445,-465 -684,-445 -238,20 -450,230 -599,553 -170,368 -251,868 -205,1415 46,546 211,1026 440,1360 201,293 445,465 684,445 238,-20 450,-230 599,-553 170,-368 251,-868 205,-1415 -46,-546 -211,-1026 -440,-1360zm4553 16561l396 -695 695 396 -396 695 -695 -396zm-2780 -1584l396 -695 695 396 -396 695 -695 -396zm6839 3894l-895 -527c-190,-111 -254,-355 -142,-545 111,-190 355,-254 545,-142l840 494c13,-80 20,-164 20,-249 0,-357 -118,-676 -309,-904 -174,-208 -410,-337 -667,-337 -256,0 -492,129 -667,337 -191,228 -309,547 -309,904 0,357 118,676 309,904 174,208 410,337 667,337 228,0 441,-102 608,-272zm16556 -45450l-303 740 -740 -303 303 -740 740 303zm8883 3640l-303 740 -740 -303 303 -740 740 303zm-2961 -1213l-303 740 -740 -303 303 -740 740 303zm-2961 -1213l-303 740 -740 -303 303 -740 740 303zm-4607 -1932l-179 420c-28,115 -43,238 -43,366 0,357 118,676 309,904 174,208 410,337 667,337 256,0 492,-129 667,-337 191,-228 309,-547 309,-904 0,-357 -118,-676 -309,-904 -174,-208 -410,-337 -667,-337 -256,0 -492,129 -667,337 -31,37 -60,77 -87,119zm-6126 46461l800 -2 2 800 -800 2 -2 -800zm-51 -22007l1 407 800 -2 -1 -407 -800 2zm7 2807l800 -2 2 800 -800 2 -2 -800zm7 3200l800 -2 2 800 -800 2 -2 -800zm7 3200l800 -2 2 800 -800 2 -2 -800zm7 3200l800 -2 2 800 -800 2 -2 -800zm7 3200l800 -2 2 800 -800 2 -2 -800zm7 3200l800 -2 2 800 -800 2 -2 -800z"/></g><text x="0" y="60015" fill="#000000" font-size="5px" font-weight="bold" font-family="'Helvetica Neue', Helvetica, Arial-Unicode, Arial, Sans-serif">Created by Olena Panasovska</text><text x="0" y="60020" fill="#000000" font-size="5px" font-weight="bold" font-family="'Helvetica Neue', Helvetica, Arial-Unicode, Arial, Sans-serif">from the Noun Project</text></svg>